# xmcd CD database file
#
# Track frame offsets:
#	150
#	27069
#	43232
#	50890
#	69315
#	104998
#	121691
#	156065
#	177589
#	203993
#	221996
#	247144
#
# Disc length: 3657 seconds
#
# Revision: 0
# Processed by: cddbd v1.5.2PL0 Copyright (c) Steve Scherf et al.
# Submitted via: CDex 1.81
#
DISCID=bd0e470c
DTITLE=Erika Stucky - Papito
DYEAR=2017
DGENRE=Jazz
TTITLE0=Erika Stucky - Ev'ry Time We Say Goodbye
TTITLE1=Erika Stucky - Marie
TTITLE2=Erika Stucky - Lil' Sister
TTITLE3=Erika Stucky - Kindly Do
TTITLE4=Erika Stucky - Tea For Two
TTITLE5=Erika Stucky - Stacheldraht
TTITLE6=Erika Stucky - Not While I'm Arround
TTITLE7=Erika Stucky - I Do
TTITLE8=Erika Stucky - Caruso - I Want You
TTITLE9=Erika Stucky - Don't Explain
TTITLE10=Erika Stucky - Flamingo Town
TTITLE11=Erika Stucky - Aftermath
EXTD=YEAR: 2017
EXTT0=
EXTT1=
EXTT2=
EXTT3=
EXTT4=
EXTT5=
EXTT6=
EXTT7=
EXTT8=
EXTT9=
EXTT10=
EXTT11=
PLAYORDER=
